<?xml version="1.0"?>
<svg xmlns:rdf="http://www.w3.org/1999/02/22-rdf-syntax-ns#" xmlns="http://www.w3.org/2000/svg" xmlns:cc="http://creativecommons.org/ns#" xmlns:xlink="http://www.w3.org/1999/xlink" xmlns:dc="http://purl.org/dc/elements/1.1/" xmlns:svg="http://www.w3.org/2000/svg" id="svg2" viewBox="0 0 308.6 391.45" version="1.1">
  <defs id="defs4">
    <linearGradient id="linearGradient3902" y2="743.76" gradientUnits="userSpaceOnUse" y1="399.3" x2="206.32" x1="206.58">
      <stop id="stop3898" stop-color="#2e81b9" offset="0"/>
      <stop id="stop3900" stop-color="#5991b7" offset="1"/>
    </linearGradient>
  </defs>
  <g id="layer1" transform="translate(-52.023 -379.59)">
    <path id="path2997" d="m62.629 771.03 11.617-2.5254 17.173 1.0102-1.5152-19.698 4.0406-6.0609-2.0203-18.688 7.0711-35.86 0.50508-17.173 4.0406-13.132 4.5457-20.203 0.50508-15.657 6.566-12.627 2.5254-3.5355s2.0203 62.124 2.5254 64.145c0.50508 2.0203 2.0203 1.0102 2.0203 5.0508s3.5355 36.871 5.0508 46.467c1.5152 9.5964 6.566 32.325 7.5761 35.355 1.0102 3.0304 2.0203 8.5863 2.0203 8.5863s56.569-13.132 76.772-9.5964c20.203 3.5355 64.65 10.102 64.65 10.102l10.102-21.718 1.0102-13.637 5.5558-63.64 3.0305-61.114s7.5762 12.627 8.0812 17.678c0.50508 5.0508 0 19.698 1.5152 23.739 1.5152 4.0406 6.566 31.315 7.5761 38.386 1.0102 7.0711 2.0203 19.193 3.0305 24.244 1.0102 5.0508-2.0203 35.86-2.0203 35.86l3.5355 23.739h33.84s2.5254-14.142 3.0305-16.162c0.50507-2.0203 4.0406-14.142 4.0406-14.142l-2.5254-55.558-11.617-75.761-17.678-56.063s-16.668-30.81-18.688-33.84c-2.0203-3.0305-8.0812-8.5863-9.5964-12.122-1.5152-3.5355-43.942-22.728-43.942-22.728l14.63-22.73-20.71-39.39-22.73-27.78s-19.193-15.152-21.213-14.647c-2.0203 0.50507-19.193 16.668-19.193 16.668l-33.84 42.931s-7.0711 15.152-6.566 18.688c0.50507 3.5355 4.0406 13.637 5.5558 16.668 1.5152 3.0304 5.0508 10.102 5.0508 10.102l-47.477 31.82-21.213 37.881-24.244 64.145-5.5558 44.447-4.5457 37.881-2.5254 34.85s3.5355 10.102 4.0406 12.122c0.50508 2.0203 7.0711 23.234 6.566 23.234z" fill="url(#linearGradient3902)"/>
    <path id="path3001" style="block-progression:tb;color:#000000;text-transform:none;text-indent:0" fill="#369" d="m118.12 522.22-2.9062 0.65625s3.2627 14.611 5.9062 29.906c1.3218 7.6474 2.4859 15.464 3 21.656 0.25705 3.0962 0.33602 5.7993 0.21875 7.8125s-0.60632 3.3482-0.6875 3.4375l2.2188 2c1.1815-1.2997 1.3374-3.027 1.4688-5.2812 0.13132-2.2543 0.0451-5.041-0.21875-8.2188-0.52763-6.3555-1.7014-14.212-3.0312-21.906-2.6598-15.389-5.9688-30.062-5.9688-30.062z"/>
    <path id="path3003" style="block-progression:tb;color:#000000;text-transform:none;text-indent:0" fill="#369" d="m299.62 517.94s-4.1904 10.567-7.4375 23.938c-3.2471 13.37-5.6769 29.548-1.6875 41.25l2.8438-0.96875c-3.5867-10.521-1.4426-26.416 1.75-39.562s7.3125-23.531 7.3125-23.531l-2.7812-1.125z"/>
    <path id="path3005" style="block-progression:tb;color:#000000;text-transform:none;text-indent:0" fill="#369" d="m155.12 668.59-16.156 56.062 2.875 0.84375l16.16-56.05-2.875-0.84375z"/>
    <path id="path3007" style="block-progression:tb;color:#000000;text-transform:none;text-indent:0" fill="#369" d="m259.03 670.12-2.9062 0.78125 15.156 56.562 2.9062-0.75-15.156-56.594z"/>
    <path id="path3009" style="block-progression:tb;color:#000000;text-transform:none;text-indent:0" fill="#369" d="m209.72 665.06c-4.1799 0.0581-8.3691 0.20083-12.375 0.375-16.024 0.69669-29.312 2.0938-29.312 2.0938l0.3125 2.9688s13.234-1.3702 29.156-2.0625c15.922-0.69227 34.604-0.64427 45.062 2.0312l0.75-2.9062c-8.4446-2.1602-21.054-2.6743-33.594-2.5z"/>
    <path id="path3011" style="block-progression:tb;color:#000000;text-transform:none;text-indent:0" fill="#369" d="m60.344 744.81-0.5 2.9375 26.781 4.5625 0.5-2.9688-26.781-4.5312z"/>
    <path id="path3013" style="block-progression:tb;color:#000000;text-transform:none;text-indent:0" fill="#369" d="m346.69 747.28c-3.1412 0.0966-7.0998 0.4007-10.969 0.78125-7.7379 0.76111-15.188 1.7812-15.188 1.7812l0.40625 2.9688s7.4268-0.99588 15.094-1.75c3.8335-0.37706 7.7043-0.6885 10.719-0.78125 1.5072-0.0464 2.8101-0.0434 3.7188 0.0312 0.4543 0.0373 0.82583 0.10547 1.0312 0.15625 0.20542 0.0508 0.21261 0.15011-0.0312-0.0937l2.125-2.125c-0.49639-0.49639-0.92195-0.57551-1.375-0.6875s-0.94612-0.17323-1.5-0.21875c-1.1078-0.091-2.4607-0.11083-4.0312-0.0625z"/>
    <path id="path3015" style="block-progression:tb;color:#000000;text-transform:none;text-indent:0" fill="#369" d="m198.16 512.16s-1.6321 3.8899-3.5 7.8125c-0.93395 1.9613-1.903 3.9262-2.75 5.375-0.42348 0.72438-0.81591 1.3325-1.0938 1.6875-0.27784 0.35501-0.67821 0.3258 0.125 0.125-1.4667 0.36667-3.544 1.2806-5.3125 2.9688-0.88425 0.84405-1.7142 1.928-2 3.3438-0.28575 1.4158 0.13464 3.0441 1.1562 4.4062 1.1536 1.5382 2.9794 2.7857 5.3125 4.3438s5.1082 3.2708 7.7812 4.9375c2.6731 1.6667 5.2574 3.2999 7.125 4.6875 0.93381 0.6938 1.6886 1.3324 2.1562 1.8125 0.46761 0.48006 0.52535 0.86497 0.46875 0.46875 0.21294 1.4906 0.37084 5.0478 0.1875 8.5312s-0.8029 7.0745-1.5 8.4688c-0.19948 0.39896-1.7529 2.3788-3.75 4.4688s-4.5202 4.5208-6.9688 6.8438c-4.897 4.6459-9.5312 8.8125-9.5312 8.8125l2.6562 3s4.6731-4.2083 9.625-8.9062c2.476-2.349 5.0187-4.8284 7.0938-7s3.6268-3.7849 4.4375-5.4062c1.3232-2.6464 1.7108-6.3798 1.9062-10.094 0.19547-3.7139 0.10464-7.2363-0.1875-9.2812-0.18287-1.2801-0.84437-1.9502-1.5625-2.6875-0.71813-0.73725-1.625-1.4838-2.6562-2.25-2.0625-1.5324-4.6816-3.1956-7.375-4.875s-5.4591-3.3556-7.6875-4.8438-3.9821-2.9554-4.3438-3.4375c-0.49361-0.65815-0.46774-0.9141-0.40625-1.2188 0.0615-0.30465 0.30779-0.76823 0.8125-1.25 1.0094-0.96354 2.9776-1.8303 3.5312-1.9688 1.3083-0.32707 1.5633-0.93333 2.0312-1.5312 0.46794-0.59792 0.93006-1.3105 1.4062-2.125 0.95237-1.6291 1.9774-3.6713 2.9375-5.6875 1.9202-4.0324 3.5625-7.9688 3.5625-7.9688l-3.6875-1.5625z"/>
    <path id="path3017" style="block-progression:tb;color:#000000;text-transform:none;text-indent:0" fill="#369" d="m216.91 518.09-7.5625 14.625-0.375 0.75 0.25 0.78125s0.89581 2.8721 2.3438 6.0312c1.4479 3.1591 3.1266 6.7195 6.25 8.2812 1.6029 0.80146 5.7701 3.7416 9.2812 6.375 3.008 2.256 4.8982 3.7644 5.5938 4.3125l-4.8438 31.688 3.9375 0.59375 5.0625-32.844 0.15625-1.125-0.90625-0.71875s-3.0338-2.4238-6.5938-5.0938c-3.5599-2.6699-7.4686-5.5312-9.9062-6.75-0.91718-0.45859-3.045-3.4732-4.375-6.375-1.1591-2.5289-1.7202-4.3102-1.9062-4.875l7.1562-13.844-3.5625-1.8125z"/>
    <path id="path3019" transform="translate(0,2)" fill="#369" d="m203.04 514.15a3.6607 3.9286 0 1 1 -7.3214 0 3.6607 3.9286 0 1 1 7.3214 0z"/>
    <path id="path3021" transform="translate(0,2)" fill="#369" d="m223.39 517.45a3.4821 3.6607 0 1 1 -6.9643 0 3.4821 3.6607 0 1 1 6.9643 0z"/>
    <path id="path3835" d="m200.36 421.29s-18.571 2.1428-23.571 8.9286c-5 6.7857-15 12.857-14.643 22.5 0.35714 9.6429 3.5714 15 7.8571 18.929 4.2857 3.9286 40.357 37.5 40.357 37.5s10.357-4.2857 14.286-10.357c3.9286-6.0714 16.786-31.786 19.286-38.929 2.5-7.1429 6.7857-17.857 3.2143-22.857s-15.714-14.286-21.786-15.357c-6.0714-1.0714-25-0.35714-25-0.35714z" fill="#369"/>
  </g>
  <metadata>
    <rdf:RDF>
      <cc:Work>
        <dc:format>image/svg+xml</dc:format>
        <dc:type rdf:resource="http://purl.org/dc/dcmitype/StillImage"/>
        <cc:license rdf:resource="http://creativecommons.org/licenses/publicdomain/"/>
        <dc:publisher>
          <cc:Agent rdf:about="http://openclipart.org/">
            <dc:title>Openclipart</dc:title>
          </cc:Agent>
        </dc:publisher>
        <dc:title>Blue hoodie</dc:title>
        <dc:date>2010-08-05T16:45:04</dc:date>
        <dc:description>Blue hooded top with I love Baseball logo</dc:description>
        <dc:source>http://openclipart.org/detail/77683/blue-hoodie-by-shokunin</dc:source>
        <dc:creator>
          <cc:Agent>
            <dc:title>shokunin</dc:title>
          </cc:Agent>
        </dc:creator>
        <dc:subject>
          <rdf:Bag>
            <rdf:li>clip art</rdf:li>
            <rdf:li>clipart</rdf:li>
            <rdf:li>clothes</rdf:li>
            <rdf:li>clothing</rdf:li>
            <rdf:li>fashion</rdf:li>
            <rdf:li>hooded top</rdf:li>
            <rdf:li>hoodie</rdf:li>
            <rdf:li>jumper</rdf:li>
          </rdf:Bag>
        </dc:subject>
      </cc:Work>
      <cc:License rdf:about="http://creativecommons.org/licenses/publicdomain/">
        <cc:permits rdf:resource="http://creativecommons.org/ns#Reproduction"/>
        <cc:permits rdf:resource="http://creativecommons.org/ns#Distribution"/>
        <cc:permits rdf:resource="http://creativecommons.org/ns#DerivativeWorks"/>
      </cc:License>
    </rdf:RDF>
  </metadata>
</svg>
