<svg xmlns="http://www.w3.org/2000/svg" version="1.1" xmlns:xlink="http://www.w3.org/1999/xlink" xmlns:svgjs="http://svgjs.dev/svgjs" viewBox="0 0 325 100"><rect width="100%" height="100%" fill="#1e293b"></rect><g fill="#0f172a">
    <rect width="100%" height="40" fill="#0f172a"></rect>

    <rect x="0" width="4.76%" height="89.52059655446503" rx="12"></rect>
      <rect x="9.5238095238%" width="4.76%" height="56.52447961528502" rx="12"></rect>
      <rect x="19.0476190476%" width="4.76%" height="72.92331857615073" rx="12"></rect>
      <rect x="28.571428571400002%" width="4.76%" height="87.55661041711659" rx="12"></rect>
      <rect x="38.0952380952%" width="4.76%" height="67.74701035530497" rx="12"></rect>
      <rect x="47.619047619%" width="4.76%" height="57.00420406041774" rx="12"></rect>
      <rect x="57.142857142800004%" width="4.76%" height="82.10802360741076" rx="12"></rect>
      <rect x="66.66666666660001%" width="4.76%" height="71.05974795014404" rx="12"></rect>
      <rect x="76.1904761904%" width="4.76%" height="77.69065641951909" rx="12"></rect>
      <rect x="85.7142857142%" width="4.76%" height="61.633925161043756" rx="12"></rect>
      <rect x="95.238095238%" width="4.76%" height="89.34891370505628" rx="12"></rect>
  </g><g fill="#1e293b">
    <rect x="4.76%" y="19.717968821485506" width="4.76%" height="60" rx="12"></rect>
      <rect x="14.285714285700001%" y="2.337741592265373" width="4.76%" height="60" rx="12"></rect>
      <rect x="23.8095238095%" y="24.809385640353693" width="4.76%" height="60" rx="12"></rect>
      <rect x="33.333333333300004%" y="3.3853022603473004" width="4.76%" height="60" rx="12"></rect>
      <rect x="42.8571428571%" y="7.5089413396768165" width="4.76%" height="60" rx="12"></rect>
      <rect x="52.380952380900005%" y="20.9537055618351" width="4.76%" height="60" rx="12"></rect>
      <rect x="61.9047619047%" y="11.238615108427563" width="4.76%" height="60" rx="12"></rect>
      <rect x="71.4285714285%" y="13.823511755760244" width="4.76%" height="60" rx="12"></rect>
      <rect x="80.9523809523%" y="25.751585562478393" width="4.76%" height="60" rx="12"></rect>
      <rect x="90.4761904761%" y="22.970757745923137" width="4.76%" height="60" rx="12"></rect>
  </g></svg>